<?xml version="1.0" standalone="no"?>
<!DOCTYPE svg PUBLIC "-//W3C//DTD SVG 20010904//EN"
 "http://www.w3.org/TR/2001/REC-SVG-20010904/DTD/svg10.dtd">
<svg version="1.0" xmlns="http://www.w3.org/2000/svg"
 width="1280.000000pt" height="1280.000000pt" viewBox="0 0 1280.000000 1280.000000"
 preserveAspectRatio="xMidYMid meet">
<g transform="translate(0.000000,1280.000000) scale(0.100000,-0.100000)"
fill="#000000" stroke="none">
<path d="M3867 11943 c-4 -3 -7 -1335 -7 -2958 0 -2465 -2 -2954 -13 -2964
-10 -8 -395 -12 -1395 -13 l-1382 -3 1181 -815 c3602 -2485 4123 -2846 4123
-2855 1 -7 -906 -11 -2696 -13 l-2698 -2 0 -610 0 -610 5390 0 5390 0 0 610 0
610 -2657 2 c-1765 2 -2658 6 -2657 13 1 11 38 36 2674 1855 960 662 1944
1341 2188 1509 l443 306 -1385 3 c-1145 2 -1386 4 -1395 16 -8 9 -12 808 -13
2967 l-3 2954 -2541 3 c-1397 1 -2544 -1 -2547 -5z"/>
</g>
</svg>
